<svg width="117" height="35" viewBox="0 0 117 35" fill="none" xmlns="http://www.w3.org/2000/svg">
<path fill-rule="evenodd" clip-rule="evenodd" d="M17.4335 0C13.9853 6.94905e-08 10.6146 1.02255 7.74761 2.93832C4.88061 4.85409 2.64612 7.57704 1.32672 10.7628C0.0073216 13.9486 -0.337715 17.454 0.335244 20.8359C1.0082 24.2178 2.66893 27.3241 5.1074 29.7621C7.54587 32.2001 10.6525 33.8602 14.0345 34.5324C17.4165 35.2047 20.922 34.859 24.1074 33.5389C27.2929 32.2189 30.0154 29.9839 31.9306 27.1165C33.8458 24.2491 34.8677 20.8782 34.867 17.43C34.8644 7.8015 27.0603 0 17.4335 0ZM25.4284 25.1449C25.3541 25.267 25.2565 25.3732 25.1411 25.4575C25.0256 25.5418 24.8947 25.6025 24.7558 25.6362C24.6169 25.6698 24.4728 25.6758 24.3316 25.6536C24.1904 25.6315 24.0549 25.5817 23.933 25.5071C19.838 23.0081 14.686 22.4402 8.61701 23.8271C8.47579 23.8651 8.32836 23.8742 8.18354 23.8539C8.03873 23.8335 7.89951 23.7842 7.77422 23.7087C7.64893 23.6333 7.54015 23.5334 7.4544 23.4149C7.36865 23.2965 7.30769 23.1619 7.27517 23.0194C7.24264 22.8768 7.23923 22.7291 7.26514 22.5852C7.29104 22.4413 7.34572 22.304 7.42591 22.1818C7.5061 22.0595 7.61015 21.9546 7.73182 21.8735C7.85349 21.7924 7.99029 21.7366 8.13401 21.7096C14.7753 20.1915 20.4715 20.8451 25.0679 23.6521C25.5789 23.9645 25.7399 24.6321 25.4284 25.1449ZM27.5616 20.398C27.4682 20.5506 27.3455 20.6832 27.2007 20.7883C27.0559 20.8934 26.8918 20.9689 26.7178 21.0104C26.5437 21.0519 26.3632 21.0587 26.1865 21.0304C26.0099 21.002 25.8405 20.9391 25.6883 20.8451C21.0044 17.9664 13.8591 17.1316 8.31513 18.8134C8.14194 18.8745 7.95815 18.8999 7.77486 18.8881C7.59157 18.8763 7.41258 18.8274 7.24868 18.7445C7.08479 18.6616 6.93939 18.5464 6.82126 18.4057C6.70313 18.2651 6.61472 18.1019 6.56136 17.9262C6.50801 17.7504 6.49081 17.5657 6.51081 17.3831C6.5308 17.2006 6.58758 17.0239 6.67772 16.8639C6.76786 16.7039 6.88948 16.5637 7.03526 16.452C7.18103 16.3403 7.34793 16.2592 7.52588 16.2137C13.8591 14.2922 21.7306 15.2224 27.1101 18.5307C27.7498 18.9219 27.9519 19.7575 27.5616 20.398ZM27.7454 15.456C22.1244 12.1249 12.8555 11.8125 7.49088 13.44C7.28412 13.5087 7.0657 13.5352 6.8485 13.5182C6.63131 13.5011 6.41973 13.4407 6.22625 13.3405C6.03277 13.2403 5.86131 13.1024 5.72198 12.9349C5.58265 12.7675 5.47826 12.5738 5.41498 12.3653C5.3517 12.1568 5.33081 11.9378 5.35354 11.7211C5.37626 11.5044 5.44215 11.2945 5.5473 11.1037C5.65246 10.9129 5.79476 10.745 5.96582 10.6101C6.13687 10.4752 6.33321 10.3758 6.54326 10.318C12.7015 8.44375 22.9408 8.81037 29.4088 12.649C29.5931 12.7582 29.7541 12.9027 29.8825 13.0741C30.011 13.2455 30.1045 13.4406 30.1576 13.6482C30.2107 13.8557 30.2224 14.0717 30.192 14.2838C30.1616 14.4959 30.0898 14.6999 29.9806 14.8842C29.8714 15.0685 29.7269 15.2295 29.5555 15.358C29.384 15.4865 29.189 15.5799 28.9814 15.633C28.7738 15.6861 28.5579 15.6978 28.3458 15.6674C28.1337 15.6371 27.9297 15.5652 27.7454 15.456ZM47.4311 16.0947C44.4211 15.3772 43.8918 14.8724 43.8918 13.8049C43.8918 12.8056 44.8324 12.1389 46.2341 12.1389C47.5913 12.1389 48.9405 12.6516 50.3475 13.7025C50.3913 13.7331 50.4438 13.7454 50.4963 13.7375C50.5223 13.7337 50.5473 13.7246 50.5698 13.7107C50.5922 13.6969 50.6115 13.6786 50.6266 13.657L52.0966 11.5745C52.1232 11.5327 52.1341 11.4828 52.1272 11.4337C52.1203 11.3846 52.0961 11.3396 52.059 11.3067C50.4271 9.97712 48.3764 9.26957 46.2718 9.31C43.022 9.31 40.7505 11.2665 40.7505 14.0586C40.7505 17.052 42.7096 18.1099 46.0924 18.928C48.9738 19.593 49.4585 20.1477 49.4585 21.1417C49.4585 22.2425 48.4759 22.9267 46.8939 22.9267C45.1369 22.9267 43.7045 22.3361 42.1059 20.9475C42.0863 20.9303 42.0635 20.9172 42.0387 20.9089C42.014 20.9007 41.9879 20.8974 41.9619 20.8994C41.9359 20.9013 41.9106 20.9085 41.8874 20.9203C41.8642 20.9322 41.8436 20.9486 41.8268 20.9685L40.1774 22.9294C40.1444 22.9684 40.1279 23.0188 40.1315 23.0698C40.1351 23.1208 40.1585 23.1684 40.1966 23.2024C42.0111 24.8519 44.3769 25.7633 46.8291 25.7574C50.3309 25.7574 52.5936 23.8437 52.5936 20.881C52.5936 18.3697 51.0991 16.9855 47.4311 16.0947ZM60.5281 13.1259C59.01 13.1259 57.7649 13.7235 56.7368 14.9494V13.5695C56.7342 13.5179 56.7126 13.469 56.676 13.4325C56.6395 13.3959 56.5906 13.3743 56.539 13.3717H53.8353C53.7835 13.3741 53.7344 13.3956 53.6977 13.4322C53.661 13.4688 53.6392 13.5177 53.6366 13.5695V28.8916C53.6419 28.9984 53.7276 29.0841 53.8344 29.0894H56.5303C56.582 29.087 56.6311 29.0655 56.6678 29.0289C56.7046 28.9923 56.7263 28.9434 56.7289 28.8916V24.0555C57.1945 24.6062 57.7772 25.046 58.4345 25.3427C59.0918 25.6395 59.8071 25.7856 60.5281 25.7705C63.3491 25.7705 66.2051 23.6005 66.2051 19.4486C66.2051 15.2976 63.3386 13.1259 60.5281 13.1259ZM63.0595 19.4486C63.0595 21.5617 61.7584 23.0379 59.8929 23.0379C58.0274 23.0379 56.6598 21.4952 56.6598 19.4486C56.6598 17.402 58.051 15.8594 59.9034 15.8594C61.7558 15.8594 63.0595 17.3687 63.0595 19.4486ZM73.5123 13.1259C69.8793 13.1259 67.0338 15.9241 67.0338 19.4941C67.0338 23.0335 69.86 25.7941 73.4668 25.7941C77.112 25.7941 79.9663 23.0064 79.9663 19.4486C79.9663 15.8909 77.133 13.125 73.5123 13.125V13.1259ZM73.5123 23.0606C71.5803 23.0606 70.1234 21.5075 70.1234 19.4504C70.1234 17.3941 71.5286 15.8847 73.4659 15.8847C75.4049 15.8847 76.8784 17.4291 76.8784 19.4941C76.8784 21.5591 75.4626 23.0501 73.5123 23.0501V23.0606ZM87.7258 13.3717H84.7595V10.3381C84.757 10.2865 84.7353 10.2377 84.6988 10.2011C84.6622 10.1646 84.6134 10.1429 84.5618 10.1404H81.8676C81.816 10.1429 81.7672 10.1646 81.7306 10.2011C81.6941 10.2377 81.6724 10.2865 81.6699 10.3381V13.3717H80.3731C80.3218 13.3747 80.2734 13.3965 80.2372 13.4331C80.201 13.4696 80.1796 13.5182 80.1771 13.5695V15.8865C80.1796 15.9378 80.201 15.9864 80.2372 16.0229C80.2734 16.0595 80.3218 16.0813 80.3731 16.0842H81.6699V22.078C81.6699 24.4991 82.8756 25.7267 85.253 25.7267C86.1355 25.7492 87.0078 25.5337 87.7783 25.1029C87.8085 25.0858 87.8337 25.061 87.8512 25.0311C87.8688 25.0011 87.878 24.967 87.878 24.9322V22.7255C87.8779 22.6919 87.8693 22.6589 87.8529 22.6296C87.8365 22.6003 87.813 22.5757 87.7844 22.558C87.7559 22.5403 87.7233 22.5302 87.6898 22.5286C87.6563 22.5269 87.6229 22.5339 87.5928 22.5487C87.1042 22.8024 86.5612 22.933 86.0108 22.9294C85.1471 22.9294 84.7613 22.5356 84.7613 21.6571V16.0825H87.7275C87.779 16.0797 87.8276 16.058 87.864 16.0215C87.9003 15.9849 87.9219 15.9362 87.9244 15.8847V13.5695C87.9218 13.5174 87.8998 13.4682 87.8627 13.4316C87.8256 13.395 87.7761 13.3737 87.724 13.3717H87.7258ZM98.0595 13.384V13.0112C98.0595 11.9166 98.476 11.4275 99.421 11.4275C99.9398 11.434 100.454 11.5287 100.941 11.7075C100.97 11.7173 101.002 11.72 101.033 11.7153C101.064 11.7106 101.093 11.6986 101.118 11.6805C101.144 11.6623 101.164 11.6384 101.179 11.6107C101.193 11.583 101.201 11.5523 101.201 11.5211V9.24787C101.199 9.20578 101.185 9.1651 101.16 9.1312C101.135 9.0973 101.101 9.07178 101.061 9.058C100.335 8.8361 99.5796 8.7272 98.8208 8.73512C96.3226 8.73512 95.0154 10.1369 95.0154 12.789V13.3595H93.7204C93.667 13.3596 93.6157 13.3802 93.577 13.417C93.5382 13.4537 93.515 13.5039 93.5121 13.5572V15.8865C93.5148 15.9399 93.538 15.9902 93.5767 16.027C93.6155 16.0638 93.6669 16.0843 93.7204 16.0842H95.0154V25.3295C95.0179 25.3808 95.0393 25.4294 95.0755 25.4659C95.1117 25.5025 95.1601 25.5243 95.2114 25.5272H97.9073C97.9589 25.5247 98.0077 25.5031 98.0443 25.4665C98.0808 25.43 98.1025 25.3811 98.105 25.3295V16.0825H100.623L104.479 25.326C104.041 26.2972 103.611 26.4897 103.021 26.4897C102.498 26.478 101.987 26.3348 101.535 26.0732C101.487 26.048 101.431 26.0427 101.378 26.0584C101.327 26.0771 101.285 26.1151 101.262 26.1642L100.349 28.1697C100.328 28.2149 100.325 28.2663 100.341 28.3134C100.357 28.3605 100.39 28.3998 100.433 28.4235C101.311 28.9204 102.304 29.1747 103.312 29.1602C105.303 29.1602 106.402 28.2336 107.372 25.7399L112.048 13.6649C112.06 13.635 112.064 13.6028 112.06 13.571C112.056 13.5392 112.045 13.5088 112.027 13.4824C112.009 13.4559 111.984 13.4343 111.956 13.4193C111.928 13.4043 111.896 13.3964 111.864 13.3962H109.058C109.017 13.3977 108.978 13.4112 108.944 13.435C108.911 13.4588 108.886 13.4919 108.871 13.5301L105.996 21.7402L102.848 13.5109C102.834 13.4735 102.809 13.4414 102.776 13.4187C102.744 13.396 102.705 13.3839 102.665 13.384H98.0604H98.0595Z" fill="white"/>
<path d="M91.4338 13.3718H90.0067C89.5476 13.3718 89.1754 13.744 89.1754 14.2031V24.6943C89.1754 25.1534 89.5476 25.5256 90.0067 25.5256H91.4338C91.8929 25.5256 92.265 25.1534 92.265 24.6943V14.2031C92.265 13.744 91.8929 13.3718 91.4338 13.3718Z" fill="white"/>
<path d="M90.7328 11.8851C91.8008 11.8851 92.6666 11.0193 92.6666 9.95132C92.6666 8.88335 91.8008 8.01758 90.7328 8.01758C89.6648 8.01758 88.7991 8.88335 88.7991 9.95132C88.7991 11.0193 89.6648 11.8851 90.7328 11.8851Z" fill="white"/>
<path fill-rule="evenodd" clip-rule="evenodd" d="M114.347 17.1527C113.971 17.1518 113.604 17.0396 113.292 16.8301C112.979 16.6207 112.736 16.3234 112.593 15.9758C112.449 15.6283 112.412 15.246 112.485 14.8772C112.559 14.5084 112.74 14.1697 113.006 13.9039C113.272 13.638 113.611 13.4568 113.979 13.3832C114.348 13.3096 114.73 13.347 115.078 13.4905C115.426 13.634 115.723 13.8772 115.932 14.1895C116.142 14.5018 116.254 14.8692 116.255 15.2452C116.257 15.4963 116.209 15.7454 116.114 15.9779C116.019 16.2104 115.879 16.4216 115.701 16.5992C115.524 16.7768 115.313 16.9172 115.08 17.0122C114.848 17.1073 114.599 17.155 114.347 17.1527ZM114.347 13.5389C114.008 13.5358 113.675 13.6338 113.391 13.8205C113.107 14.0071 112.885 14.274 112.753 14.5872C112.621 14.9004 112.585 15.2457 112.65 15.5793C112.715 15.9128 112.877 16.2195 113.117 16.4604C113.357 16.7013 113.663 16.8655 113.996 16.9321C114.329 16.9987 114.675 16.9647 114.988 16.8345C115.302 16.7042 115.57 16.4835 115.758 16.2005C115.947 15.9175 116.046 15.585 116.045 15.2452C116.047 14.7953 115.871 14.3629 115.554 14.0429C115.238 13.723 114.808 13.5417 114.358 13.5389H114.347ZM114.764 15.4412L115.301 16.1928H114.864L114.381 15.5033H113.964V16.1928H113.585V14.2004H114.472C114.934 14.2004 115.238 14.4376 115.238 14.8357C115.244 14.9742 115.201 15.1105 115.117 15.2208C115.033 15.3311 114.913 15.4085 114.778 15.4394L114.764 15.4412ZM114.447 14.5417H113.954V15.1664H114.447C114.692 15.1664 114.841 15.0457 114.841 14.8514C114.841 14.6589 114.703 14.5417 114.447 14.5417Z" fill="white"/>
</svg>
